<svg xmlns="http://www.w3.org/2000/svg" width="132" height="20" viewBox="0 0 132 20" fill="none">
  <path d="M51.846 15.2313C51.5511 15.0101 51.3557 14.6808 51.3036 14.3159C51.2514 13.9509 51.3468 13.5801 51.568 13.2851C51.7892 12.9902 52.1186 12.7952 52.4835 12.7431C52.8485 12.6909 53.2192 12.7859 53.5142 13.0071C54.8222 14.1169 56.4818 14.7262 58.1972 14.7264C60.0121 14.7264 61.1588 13.8668 61.1588 12.6257V12.5768C61.1588 11.3835 60.4914 10.7385 57.3853 10.019C53.8266 9.15931 51.8249 8.10833 51.8249 5.02782V4.9822C51.8249 2.11744 54.2123 0.134623 57.532 0.134623C59.4169 0.0981913 61.2676 0.641645 62.8334 1.69152C63.0345 1.81201 63.1998 1.98366 63.3129 2.18899C63.426 2.39432 63.4831 2.62601 63.4775 2.86037C63.4763 3.22266 63.3315 3.56965 63.0745 3.8251C62.8176 4.08056 62.4697 4.22355 62.1074 4.22266H62.0928C61.8227 4.22508 61.5576 4.15026 61.3287 4.00695C60.2012 3.21299 58.8629 2.77244 57.4842 2.74138C55.766 2.74138 54.762 3.62436 54.762 4.72312V4.7709C54.762 6.05983 55.5271 6.63256 58.7499 7.39768C62.2842 8.25733 64.1014 9.52293 64.1014 12.2909V12.3388C64.1014 15.466 61.6424 17.3288 58.1315 17.3288C55.8637 17.3333 53.6567 16.5968 51.846 15.2313Z" fill="black"/>
  <path d="M29.1346 17.3721C27.3293 17.3701 25.5989 16.652 24.3224 15.3754C23.0458 14.0988 22.3278 12.368 22.3257 10.5627V1.95623C22.3237 1.77674 22.3567 1.59855 22.4235 1.43194C22.4902 1.26533 22.589 1.11354 22.7145 0.985175C22.84 0.85681 22.9899 0.754372 23.1549 0.6838C23.3199 0.613229 23.4972 0.575872 23.6767 0.573839H23.7066C24.076 0.571468 24.4316 0.715674 24.6949 0.97479C24.9582 1.2339 25.1079 1.58684 25.1114 1.95623V10.5627C25.1289 11.6181 25.5605 12.6243 26.3131 13.3645C27.0656 14.1046 28.0785 14.5194 29.1341 14.5194C30.1896 14.5194 31.203 14.1046 31.9556 13.3645C32.7081 12.6243 33.1397 11.6181 33.1573 10.5627V1.95623C33.1573 1.58651 33.3042 1.23187 33.5656 0.970445C33.8271 0.709017 34.1815 0.562164 34.5512 0.562164C34.9209 0.562164 35.2759 0.709017 35.5373 0.970445C35.7988 1.23187 35.9451 1.58651 35.9451 1.95623V10.5627C35.9431 12.3682 35.2253 14.0992 33.9485 15.3758C32.6717 16.6524 30.9401 17.3704 29.1346 17.3721Z" fill="black"/>
  <path d="M43.669 17.3722C43.4895 17.3742 43.3111 17.3408 43.1444 17.274C42.9778 17.2071 42.8264 17.108 42.6981 16.9824C42.5698 16.8568 42.4671 16.7071 42.3967 16.542C42.3263 16.3768 42.2893 16.1994 42.2876 16.0199V1.95627C42.2837 1.59386 42.4241 1.24467 42.6774 0.985488C42.9308 0.726309 43.2767 0.578281 43.6391 0.573881H43.669C44.0384 0.57151 44.3935 0.715717 44.6567 0.974832C44.92 1.23395 45.0697 1.58688 45.0732 1.95627V15.9898C45.07 16.3593 44.9206 16.7124 44.6573 16.9716C44.3939 17.2308 44.0385 17.3749 43.669 17.3722Z" fill="black"/>
  <path d="M70.8445 17.3721C70.6649 17.3742 70.4865 17.3408 70.3199 17.2739C70.1533 17.207 70.0018 17.108 69.8736 16.9824C69.7453 16.8567 69.6426 16.7071 69.5722 16.5419C69.5018 16.3767 69.4648 16.1993 69.463 16.0198C69.4619 16.0098 69.4619 15.9997 69.463 15.9897V1.95618C69.4589 1.59388 69.5987 1.24468 69.8518 0.985472C70.105 0.72626 70.4507 0.578196 70.813 0.573797H70.8445C71.214 0.571131 71.5694 0.71523 71.8328 0.974408C72.0961 1.23359 72.2455 1.5867 72.2487 1.95618V15.9897C72.2473 16.1727 72.2099 16.3536 72.1385 16.5221C72.0671 16.6907 71.9632 16.8435 71.8328 16.9718C71.7023 17.1002 71.5479 17.2016 71.3783 17.2703C71.2086 17.339 71.0275 17.3736 70.8445 17.3721Z" fill="black"/>
  <path d="M83.3364 17.3722C82.97 17.3716 82.619 17.2257 82.36 16.9665C82.1011 16.7074 81.9552 16.3561 81.9549 15.9898V3.36299H78.3965C78.027 3.35918 77.6737 3.20894 77.4148 2.94521C77.1558 2.68147 77.0121 2.32583 77.0151 1.95624C77.011 1.59393 77.1507 1.24474 77.4039 0.985527C77.6571 0.726315 78.0027 0.578251 78.365 0.573853H88.3017C88.6681 0.574441 89.0191 0.720343 89.2781 0.979486C89.537 1.23863 89.6829 1.5899 89.6832 1.95624C89.6815 2.32444 89.536 2.67745 89.2781 2.94019C89.0201 3.20292 88.6698 3.3546 88.3017 3.36299H84.7189V15.9898C84.7211 16.1693 84.6879 16.3475 84.6211 16.5142C84.5544 16.6809 84.455 16.8328 84.3295 16.9612C84.204 17.0896 84.0548 17.1919 83.8897 17.2625C83.7246 17.333 83.5469 17.3703 83.3673 17.3722H83.3364Z" fill="black"/>
  <path d="M96.1044 17.3722C95.9248 17.3742 95.7464 17.3408 95.5798 17.274C95.4132 17.2071 95.2617 17.108 95.1334 16.9824C95.0051 16.8568 94.903 16.7071 94.8326 16.542C94.7622 16.3768 94.7247 16.1994 94.7229 16.0199V1.95627C94.7191 1.59386 94.8595 1.24467 95.1128 0.985488C95.3661 0.726309 95.7121 0.578281 96.0745 0.573881H96.1044C96.4737 0.57151 96.8288 0.715717 97.0921 0.974832C97.3554 1.23395 97.5056 1.58688 97.5091 1.95627V15.9898C97.5059 16.3593 97.356 16.7124 97.0926 16.9716C96.8293 17.2308 96.4738 17.3749 96.1044 17.3722Z" fill="black"/>
  <path d="M109.669 17.4032C109.382 17.4201 109.097 17.3399 108.862 17.1754C108.626 17.011 108.452 16.772 108.369 16.4969L102.647 2.42438C102.576 2.26328 102.539 2.08989 102.536 1.91414C102.533 1.7384 102.564 1.56379 102.629 1.40031C102.693 1.23684 102.79 1.08773 102.912 0.961557C103.035 0.835382 103.18 0.734623 103.342 0.66507L103.402 0.640566C103.562 0.570596 103.734 0.532981 103.908 0.529926C104.082 0.526872 104.256 0.55845 104.418 0.622782C104.589 0.689959 104.745 0.790849 104.876 0.919405C105.008 1.04796 105.113 1.20161 105.184 1.37126L109.665 12.1019L114.176 1.38457C114.248 1.21515 114.354 1.06191 114.486 0.933931C114.619 0.805948 114.775 0.705831 114.947 0.63948C115.198 0.541626 115.472 0.51919 115.736 0.574929C116 0.630668 116.242 0.762153 116.432 0.953276C116.622 1.1444 116.753 1.38685 116.807 1.65092C116.861 1.91499 116.838 2.18924 116.739 2.43999C116.739 2.43999 110.94 16.488 110.94 16.4991C110.858 16.7695 110.689 17.0052 110.459 17.1689C110.229 17.3326 109.951 17.415 109.669 17.4032Z" fill="black"/>
  <path d="M129.83 17.3722H122.246C121.88 17.3719 121.529 17.2261 121.27 16.9669C121.011 16.7077 120.865 16.3562 120.865 15.9898V1.95624C120.863 1.77675 120.896 1.59857 120.963 1.43196C121.03 1.26534 121.129 1.11355 121.255 0.985188C121.38 0.856824 121.53 0.754385 121.695 0.683814C121.86 0.613242 122.037 0.575886 122.216 0.573853H129.828C130.191 0.584104 130.535 0.735466 130.788 0.995777C131.041 1.25609 131.183 1.60487 131.183 1.96791C131.183 2.33096 131.041 2.67967 130.788 2.93998C130.535 3.20029 130.191 3.35166 129.828 3.36191H123.653V7.39435H128.953C129.316 7.4031 129.663 7.55158 129.92 7.80895C130.178 8.06631 130.326 8.41287 130.335 8.77674C130.336 8.95973 130.302 9.14117 130.233 9.3108C130.164 9.48042 130.063 9.63487 129.934 9.7653C129.806 9.89573 129.653 9.99958 129.485 10.071C129.316 10.1423 129.136 10.1799 128.953 10.1813H123.653V14.5841H129.834C130.204 14.5841 130.558 14.7309 130.819 14.9922C131.081 15.2536 131.228 15.608 131.228 15.9776C131.228 16.3471 131.081 16.7015 130.819 16.9629C130.558 17.2242 130.204 17.371 129.834 17.371L129.83 17.3722Z" fill="black"/>
  <path d="M8.59321 14.5129C7.81572 14.5092 7.04701 14.3499 6.33209 14.0443C5.61717 13.7387 4.97034 13.293 4.43044 12.7335C4.3036 12.6024 4.15201 12.4976 3.98462 12.425C3.81723 12.3525 3.63759 12.3137 3.45518 12.3108C3.27277 12.3079 3.09155 12.341 2.92194 12.4082C2.75233 12.4754 2.59728 12.5753 2.46635 12.7024C2.33731 12.8246 2.23359 12.971 2.16117 13.1332C2.08876 13.2955 2.04917 13.4705 2.04442 13.6482C2.03967 13.8258 2.07038 14.0027 2.13402 14.1686C2.19766 14.3345 2.29298 14.4863 2.4153 14.6152L2.43648 14.6374C3.22887 15.4618 4.17989 16.1171 5.23248 16.5638C6.28506 17.0104 7.41719 17.2393 8.56063 17.2364H8.64208C8.81789 17.2397 8.99274 17.2081 9.15632 17.1436C9.3199 17.0791 9.46879 16.9829 9.59508 16.8605C9.72136 16.7382 9.82247 16.5921 9.89211 16.4306C9.96174 16.2691 9.99894 16.0955 10.0013 15.9197V15.8819C9.9954 15.5139 9.84376 15.1631 9.57987 14.9065C9.31599 14.65 8.96125 14.5084 8.59321 14.5129Z" fill="black"/>
  <path d="M15.6351 13.711C16.4354 12.6071 16.9627 11.3296 17.1746 9.98267C17.3864 8.63577 17.2768 7.25785 16.8542 5.96156C16.4315 4.66527 15.708 3.48737 14.7429 2.52426C13.7778 1.56114 12.5984 0.840127 11.3013 0.420134C10.0041 0.000140991 8.62615 -0.106917 7.27969 0.107763C5.93324 0.322443 4.65629 0.852739 3.55405 1.65529C2.45181 2.45785 1.55555 3.50989 0.937795 4.72538C0.320045 5.94086 -0.00139196 7.28529 4.5309e-06 8.64874C4.5309e-06 9.01743 0.146569 9.37104 0.407267 9.63174C0.667966 9.89244 1.02144 10.0389 1.39013 10.0389C1.75881 10.0389 2.11229 9.89244 2.37299 9.63174C2.63369 9.37104 2.78025 9.01743 2.78025 8.64874C2.78036 7.68786 3.01669 6.74178 3.46826 5.89361C3.91982 5.04544 4.57277 4.32121 5.3699 3.78467C6.16703 3.24812 7.08361 2.9157 8.03937 2.8166C8.99514 2.71751 9.96086 2.85474 10.8511 3.21633C11.7414 3.57792 12.5288 4.15277 13.1448 4.89025C13.7608 5.62773 14.1862 6.50527 14.3834 7.44569C14.5807 8.38611 14.5437 9.3606 14.2759 10.2834C14.0082 11.2063 13.5183 12.0491 12.8483 12.7379L12.838 12.7513C12.8147 12.7713 12.788 12.7869 12.7658 12.8091C12.5054 13.0696 12.3591 13.4228 12.3591 13.7911C12.3591 14.1594 12.5054 14.5126 12.7658 14.7731L14.7554 16.7626C14.883 16.8931 15.0351 16.9971 15.2029 17.0688C15.3706 17.1404 15.5504 17.1783 15.7328 17.1804C15.9153 17.1824 16.0968 17.1485 16.2661 17.0805C16.4354 17.0126 16.5896 16.9119 16.72 16.7844C16.8505 16.6568 16.9541 16.5048 17.0258 16.337C17.0974 16.1692 17.1356 15.989 17.1376 15.8066C17.1396 15.6242 17.1057 15.4431 17.0377 15.2738C16.9698 15.1045 16.8693 14.9502 16.7418 14.8198L16.7195 14.7976L15.6351 13.711Z" fill="#00B3E2"/>
  <path d="M18.5567 17.2153C18.2813 17.2153 18.0118 17.2969 17.7829 17.4499C17.5539 17.6029 17.3757 17.8204 17.2703 18.0748C17.1649 18.3292 17.1373 18.6092 17.191 18.8793C17.2447 19.1494 17.3775 19.3975 17.5722 19.5922C17.7669 19.7869 18.0151 19.9195 18.2852 19.9733C18.5553 20.027 18.835 19.9994 19.0894 19.894C19.3438 19.7886 19.5614 19.6101 19.7144 19.3812C19.8674 19.1522 19.949 18.883 19.949 18.6076C19.9487 18.2385 19.8017 17.8845 19.5406 17.6234C19.2796 17.3624 18.9259 17.2156 18.5567 17.2153Z" fill="#00B3E2"/>
</svg>