<?xml version="1.0" encoding="UTF-8"?>
<svg id="Layer_2" data-name="Layer 2" xmlns="http://www.w3.org/2000/svg" viewBox="0 0 406.43 108.84">
  <defs>
    <style>
      .cls-1 {
        fill: #fff;
      }
    </style>
  </defs>
  <g id="Layer_1-2" data-name="Layer 1">
    <g>
      <g>
        <g>
          <path class="cls-1" d="M136.73,23.34c-2.32-1.99-5.13-3.54-8.36-4.6-3.2-1.05-6.7-1.58-10.4-1.58s-7.17.53-10.37,1.58c-3.23,1.06-6.04,2.61-8.36,4.6-2.97,2.55-5.26,5.53-6.8,8.84-1.54,3.32-2.32,6.94-2.32,10.79s.78,7.53,2.3,10.82c1.53,3.29,3.83,6.24,6.81,8.74,2.34,2.04,5.17,3.62,8.4,4.69,3.2,1.06,6.68,1.6,10.34,1.6s7.17-.54,10.37-1.6c3.23-1.07,6.05-2.65,8.39-4.68,2.98-2.53,5.27-5.49,6.81-8.79,1.54-3.3,2.32-6.93,2.32-10.77s-.77-7.5-2.3-10.8c-1.53-3.3-3.82-6.27-6.82-8.83ZM136.14,42.97c0,5.06-1.65,9.08-5.04,12.28-3.36,3.17-7.78,4.78-13.13,4.78s-9.77-1.61-13.11-4.78c-3.38-3.2-5.02-7.22-5.02-12.28s1.64-9.05,5.02-12.25c3.35-3.17,7.76-4.78,13.11-4.78s9.77,1.61,13.13,4.78c3.39,3.2,5.04,7.21,5.04,12.25Z"/>
          <path class="cls-1" d="M167.35,34.64h-15.26v2.22l1.22,1.12c.09.09.12.15.13.16.02.04.03.1.03.17v40.53c0,.15-.02.24-.04.27l1.11.43-1.21-.32-1.24,1.19v2.17h10.89v-2.16l-1.19-1.19s-.07-.08-.08-.13c-.01-.03-.04-.11-.04-.27v-18.68l4.41,7.82h2.91c4.92,0,9.02-1.56,12.18-4.62,3.18-3.08,4.78-7.03,4.78-11.74,0-5.2-1.7-9.38-5.06-12.42-3.33-3.02-7.88-4.55-13.55-4.55ZM161.68,42.59h5.81c3.34,0,5.87.77,7.54,2.29,1.65,1.51,2.46,3.71,2.46,6.74,0,2.65-.77,4.67-2.36,6.17-1.61,1.52-3.8,2.25-6.7,2.25h-1.51c-.48,0-.88-.05-1.18-.15-.26-.08-.52-.24-.82-.5l-1.63-1.3-1.61.88v-16.38Z"/>
          <path class="cls-1" d="M212.09,57.19l11.8-22.55h-12.96c-6.25,0-11.12,1.46-14.48,4.34-3.41,2.93-5.14,7.17-5.14,12.63,0,5.04,1.63,9.08,4.84,12,3.18,2.89,7.58,4.36,13.06,4.36h9.13l5.02-8.76-2.23-1.12-1.9,1.61c-.2.16-.33.23-.42.26-.07.03-.25.07-.6.07h-8.81c-3.22,0-5.67-.75-7.26-2.24-1.59-1.49-2.37-3.66-2.37-6.65,0-2.79.74-4.87,2.25-6.35,1.5-1.46,3.71-2.21,6.57-2.21h2.34l-7.7,14.6h8.83Z"/>
          <path class="cls-1" d="M260.19,64.51s-.04-.12-.04-.27v-14.34c0-4.89-1.24-8.68-3.69-11.27-2.47-2.6-6.11-3.94-10.83-3.99h-5.15l-.69.7v-.7h-9.52v2.22l1.22,1.12c.09.09.12.15.13.16.02.04.03.1.03.17v25.93c0,.15-.02.24-.04.27l1.11.43-1.21-.32-1.24,1.19v2.17h11.03v-2.18l-1.25-1.16s-.07-.08-.08-.13c-.01-.03-.04-.11-.04-.27v-21.65h5.94c1.99,0,3.45.57,4.45,1.75,1.04,1.23,1.56,3.1,1.56,5.56v14.34c0,.15-.02.24-.04.27-.02.05-.04.09-.05.09l-1.29,1.19v2.18h11.03v-2.18l-1.25-1.16s-.07-.08-.08-.12Z"/>
          <path class="cls-1" d="M283.59,64.24V26.81l15.64-.03v1.74h2.23l5.8-10.52h-50.56l-5.17,9.65,2.17,1.09,1.95-1.51c.36-.31.5-.38.5-.38.05-.02.1-.03.16-.03h17.9v37.43c0,.15-.02.24-.04.27l1.11.43-1.21-.32-1.24,1.19v2.17h12.03v-2.17l-1.24-1.19s-.03-.1-.03-.38Z"/>
          <path class="cls-1" d="M317.26,57.19l11.8-22.55h-12.96c-6.25,0-11.12,1.46-14.48,4.34-3.41,2.93-5.14,7.17-5.14,12.63,0,5.04,1.63,9.08,4.85,12,3.18,2.89,7.58,4.36,13.06,4.36h9.13l5.02-8.76-2.23-1.12-1.9,1.61c-.2.16-.33.23-.42.26-.07.03-.25.07-.6.07h-8.81c-3.22,0-5.67-.75-7.26-2.24-1.59-1.49-2.37-3.66-2.37-6.65,0-2.79.74-4.87,2.25-6.35,1.5-1.46,3.71-2.21,6.57-2.21h2.34l-7.7,14.6h8.83Z"/>
          <path class="cls-1" d="M384.66,59.82c1.98-2.08,3.5-4.45,4.54-7.07,1.16-2.92,1.74-6.22,1.74-9.78,0-3.84-.78-7.47-2.32-10.79-1.54-3.31-3.83-6.29-6.8-8.84-2.32-1.99-5.13-3.54-8.36-4.6-3.2-1.05-6.7-1.58-10.4-1.58s-7.17.53-10.37,1.58c-3.23,1.06-6.04,2.61-8.35,4.59-2.98,2.51-5.27,5.47-6.81,8.78-1.54,3.32-2.32,6.97-2.32,10.85s.78,7.53,2.3,10.82c1.53,3.29,3.83,6.24,6.82,8.75,2.38,2.03,5.22,3.61,8.44,4.68,3.19,1.06,6.65,1.6,10.29,1.6,2.85,0,5.59-.32,8.14-.96,2.22-.55,4.33-1.35,6.31-2.36l2.62,3.32h11.44l-6.9-9ZM363.05,60.03c-5.35,0-9.76-1.61-13.11-4.78-3.38-3.2-5.02-7.22-5.02-12.28s1.64-9.05,5.02-12.25c3.35-3.17,7.76-4.78,13.11-4.78s9.77,1.61,13.13,4.78c3.39,3.2,5.03,7.21,5.03,12.25,0,2.14-.29,4.12-.86,5.9-.4,1.23-.94,2.35-1.61,3.35l-4.27-5.41h-11.53l8.91,11.39c-1.13.51-2.3.92-3.5,1.22-1.66.41-3.45.62-5.31.62Z"/>
          <path class="cls-1" d="M42.14,75.43v.05l-8.87-2.9V28.18l-5.4-2.18v51.68l14.28,5.8s-.02-.05,0-.07v.07s16.44,1.64,21.7,17.1c0,0-3.53-21.03-21.7-25.16Z"/>
          <polygon class="cls-1" points="36.11 19.12 0 1.06 0 95.58 36.11 82.67 25.9 78.43 10.12 83.87 9.93 16.28 25.27 22.96 36.98 27.91 36.98 72.31 42.26 73.95 42.26 22.2 36.11 19.12"/>
          <path class="cls-1" d="M35.32,17.11l8.54,4.19,15.45-5.96-.19,65.9-6.26-2.25c5.09,3.6,8.26,8.69,10.17,12.98l6.9,2.8V1l-34.61,16.11Z"/>
        </g>
        <g>
          <path class="cls-1" d="M110.26,91.29c0,.22,0,.41-.03.56-.02.15-.05.28-.09.37-.04.1-.08.17-.14.21s-.12.07-.19.07h-3.65v11.8c0,.07-.02.14-.07.2s-.13.11-.24.15-.26.07-.46.09c-.19.02-.43.03-.72.03s-.52-.01-.72-.03c-.19-.02-.34-.05-.46-.09s-.19-.09-.24-.15-.07-.13-.07-.2v-11.8h-3.65c-.07,0-.14-.02-.19-.07-.05-.05-.1-.12-.13-.21-.04-.09-.07-.22-.09-.37-.02-.16-.03-.34-.03-.56s0-.42.03-.58.05-.29.09-.38c.04-.1.08-.16.13-.2.05-.04.12-.06.19-.06h10.28c.07,0,.13.02.19.06.06.04.1.11.14.2.04.09.07.22.09.38.02.16.03.35.03.58Z"/>
          <path class="cls-1" d="M119.61,98.99c0,.35-.08.6-.23.77s-.37.25-.64.25h-6.12c0,.43.05.82.15,1.17.1.35.26.65.48.89.22.25.51.43.86.56.35.13.77.19,1.26.19s.93-.04,1.31-.11c.38-.07.7-.15.98-.24.27-.09.5-.17.68-.24.18-.07.33-.11.44-.11.07,0,.12.01.17.04.05.02.08.07.11.14s.05.16.06.29c.01.12.02.28.02.47,0,.17,0,.31-.01.42,0,.12-.02.22-.03.3s-.04.15-.07.21c-.03.05-.07.11-.12.16s-.18.12-.4.21-.5.18-.83.26c-.34.09-.73.16-1.16.23-.44.07-.9.1-1.4.1-.89,0-1.68-.11-2.35-.34s-1.24-.57-1.69-1.03-.79-1.04-1.01-1.74-.33-1.52-.33-2.47.12-1.71.35-2.43c.23-.72.57-1.33,1.01-1.83.44-.5.98-.88,1.62-1.15.63-.26,1.35-.4,2.15-.4.84,0,1.56.12,2.16.37s1.09.59,1.47,1.04c.38.44.67.96.85,1.57.18.6.27,1.26.27,1.97v.45ZM116.86,98.17c.02-.8-.14-1.43-.48-1.88-.34-.46-.87-.69-1.58-.69-.36,0-.67.07-.94.2s-.49.32-.67.55c-.18.23-.31.5-.41.81-.1.31-.15.64-.17,1h4.24Z"/>
          <path class="cls-1" d="M130.06,102.72c0,.2,0,.36-.02.49-.01.13-.03.24-.05.33s-.04.17-.07.22c-.03.06-.08.13-.17.22-.09.09-.24.19-.46.32-.22.12-.47.24-.74.33s-.58.18-.91.24-.66.09-1.01.09c-.77,0-1.46-.12-2.06-.36s-1.1-.6-1.5-1.07c-.41-.47-.71-1.05-.92-1.73-.21-.68-.31-1.45-.31-2.33,0-1.01.12-1.88.38-2.62.25-.74.6-1.35,1.05-1.83s.98-.84,1.6-1.07,1.29-.35,2.03-.35c.3,0,.6.03.88.08.29.05.56.12.81.21s.48.19.68.31.34.21.42.29c.08.08.14.15.17.21.03.05.06.13.08.22s.03.2.05.33c.01.13.02.29.02.48,0,.44-.04.74-.11.92-.07.18-.17.27-.29.27-.13,0-.26-.05-.41-.16s-.31-.22-.51-.35c-.2-.13-.43-.24-.7-.35-.27-.11-.59-.16-.97-.16-.74,0-1.3.29-1.69.86-.39.57-.59,1.4-.59,2.5,0,.54.05,1.02.15,1.44s.24.76.43,1.04.43.49.72.63c.29.14.62.21,1.01.21s.73-.06,1.01-.18c.28-.12.53-.25.74-.39s.39-.27.53-.39c.14-.12.26-.18.36-.18.07,0,.12.02.17.06.04.04.08.11.11.21.02.1.05.23.06.39.02.16.02.36.02.61Z"/>
          <path class="cls-1" d="M142.22,104.33c0,.07-.02.14-.07.2-.05.05-.12.1-.23.14-.1.04-.25.07-.43.09-.19.02-.41.03-.68.03s-.51,0-.69-.03c-.18-.02-.33-.05-.43-.09-.1-.04-.18-.09-.22-.14-.05-.06-.07-.12-.07-.2v-5.76c0-.49-.04-.88-.11-1.15-.07-.28-.17-.52-.31-.72-.13-.2-.31-.36-.52-.47-.21-.11-.46-.16-.75-.16-.36,0-.73.13-1.09.4-.37.26-.75.65-1.15,1.15v6.71c0,.07-.02.14-.07.2-.05.05-.12.1-.23.14-.11.04-.25.07-.43.09-.18.02-.41.03-.69.03s-.51,0-.69-.03c-.18-.02-.32-.05-.43-.09-.11-.04-.19-.09-.23-.14-.05-.06-.07-.12-.07-.2v-14.88c0-.07.02-.14.07-.2s.12-.11.23-.15c.11-.04.26-.07.43-.1.18-.02.41-.03.69-.03s.51.01.69.03.32.05.43.1c.11.04.19.09.23.15s.07.13.07.2v5.58c.49-.48.98-.84,1.49-1.08.51-.24,1.04-.36,1.58-.36.68,0,1.26.11,1.73.34.47.23.85.54,1.14.93.29.39.5.85.62,1.37.13.52.19,1.16.19,1.91v6.19Z"/>
          <path class="cls-1" d="M155.11,104.33c0,.07-.02.14-.07.2-.05.05-.12.1-.23.14-.1.04-.25.07-.43.09-.19.02-.41.03-.68.03s-.51,0-.69-.03c-.18-.02-.33-.05-.43-.09-.1-.04-.18-.09-.22-.14-.05-.06-.07-.12-.07-.2v-5.76c0-.49-.04-.88-.11-1.15-.07-.28-.17-.52-.31-.72-.13-.2-.31-.36-.52-.47-.21-.11-.46-.16-.75-.16-.36,0-.73.13-1.09.4-.37.26-.75.65-1.15,1.15v6.71c0,.07-.02.14-.07.2-.05.05-.12.1-.23.14-.11.04-.25.07-.43.09-.18.02-.41.03-.69.03s-.51,0-.69-.03c-.18-.02-.32-.05-.43-.09-.11-.04-.19-.09-.23-.14-.05-.06-.07-.12-.07-.2v-10.09c0-.07.02-.14.05-.2.04-.05.11-.1.2-.14s.22-.07.38-.09c.15-.02.35-.03.58-.03s.44,0,.6.03c.16.02.28.05.37.09s.15.09.19.14c.04.06.06.12.06.2v1.17c.56-.6,1.12-1.06,1.7-1.36.57-.3,1.17-.45,1.8-.45.68,0,1.26.11,1.73.34.47.23.85.53,1.14.92.29.39.5.84.62,1.36s.19,1.15.19,1.88v6.23Z"/>
          <path class="cls-1" d="M168.57,99.18c0,.86-.11,1.64-.34,2.35-.22.71-.57,1.32-1.03,1.83-.46.51-1.03.91-1.72,1.19-.69.28-1.5.42-2.42.42s-1.67-.12-2.33-.37c-.66-.25-1.21-.61-1.64-1.09-.43-.48-.76-1.06-.97-1.75s-.31-1.49-.31-2.38.11-1.64.34-2.36c.23-.71.57-1.32,1.03-1.83.46-.51,1.03-.9,1.72-1.18.69-.28,1.49-.42,2.42-.42s1.68.12,2.34.37c.66.24,1.21.6,1.64,1.08.43.48.75,1.06.96,1.75s.32,1.49.32,2.39ZM165.65,99.29c0-.5-.04-.96-.12-1.37-.08-.42-.21-.78-.4-1.09s-.44-.55-.75-.72c-.31-.17-.71-.26-1.18-.26-.42,0-.79.08-1.1.23-.31.16-.57.38-.78.68-.2.3-.35.66-.45,1.08-.1.42-.15.89-.15,1.43,0,.5.04.95.12,1.38.08.42.22.78.4,1.09s.43.55.75.72c.32.17.71.25,1.17.25.43,0,.8-.08,1.12-.23.32-.16.57-.38.78-.67s.35-.65.45-1.07c.1-.42.15-.9.15-1.43Z"/>
          <path class="cls-1" d="M174.16,104.33c0,.07-.02.14-.07.2-.05.05-.12.1-.23.14-.11.04-.25.07-.43.09-.18.02-.41.03-.69.03s-.51,0-.69-.03c-.18-.02-.32-.05-.43-.09-.11-.04-.19-.09-.23-.14-.05-.06-.07-.12-.07-.2v-14.88c0-.07.02-.14.07-.2s.12-.11.23-.15c.11-.04.26-.07.43-.1.18-.02.41-.03.69-.03s.51.01.69.03.32.05.43.1c.11.04.19.09.23.15s.07.13.07.2v14.88Z"/>
          <path class="cls-1" d="M187.66,99.18c0,.86-.11,1.64-.34,2.35-.22.71-.57,1.32-1.03,1.83-.46.51-1.03.91-1.72,1.19-.69.28-1.5.42-2.42.42s-1.67-.12-2.33-.37c-.66-.25-1.21-.61-1.64-1.09-.43-.48-.76-1.06-.97-1.75s-.31-1.49-.31-2.38.11-1.64.34-2.36c.23-.71.57-1.32,1.03-1.83.46-.51,1.03-.9,1.72-1.18.69-.28,1.49-.42,2.42-.42s1.68.12,2.34.37c.66.24,1.21.6,1.64,1.08.43.48.75,1.06.96,1.75s.32,1.49.32,2.39ZM184.74,99.29c0-.5-.04-.96-.12-1.37-.08-.42-.21-.78-.4-1.09s-.44-.55-.75-.72c-.31-.17-.71-.26-1.18-.26-.42,0-.79.08-1.1.23-.31.16-.57.38-.78.68-.2.3-.35.66-.45,1.08-.1.42-.15.89-.15,1.43,0,.5.04.95.12,1.38.08.42.22.78.4,1.09s.43.55.75.72c.32.17.71.25,1.17.25.43,0,.8-.08,1.12-.23.32-.16.57-.38.78-.67s.35-.65.45-1.07c.1-.42.15-.9.15-1.43Z"/>
          <path class="cls-1" d="M199.47,94.94c0,.36-.04.63-.12.8-.08.17-.19.26-.31.26h-1.18c.17.18.29.39.36.62.07.23.11.47.11.72,0,.59-.1,1.11-.29,1.57-.19.46-.48.84-.84,1.15-.36.31-.8.55-1.32.72-.51.16-1.09.24-1.72.24-.32,0-.63-.04-.92-.12-.29-.08-.52-.17-.68-.28-.09.1-.17.21-.24.35-.07.14-.11.29-.11.45,0,.22.1.4.29.54.19.14.46.22.81.23l2.45.09c.57.02,1.08.1,1.53.24.45.14.82.34,1.13.59.31.25.54.56.7.91.16.36.24.76.24,1.21,0,.5-.11.97-.33,1.41-.22.44-.54.83-.98,1.15-.43.32-.98.58-1.64.77-.66.19-1.43.28-2.31.28s-1.59-.07-2.19-.2c-.6-.14-1.1-.32-1.49-.57s-.67-.53-.84-.87c-.18-.33-.27-.7-.27-1.1,0-.25.03-.49.1-.71s.16-.44.28-.65c.12-.21.28-.41.46-.59s.39-.37.62-.54c-.32-.17-.57-.41-.75-.71-.18-.3-.26-.62-.26-.98,0-.45.1-.85.3-1.22.2-.37.47-.7.79-.99-.26-.26-.47-.58-.63-.95s-.24-.83-.24-1.38c0-.59.1-1.11.31-1.58.21-.46.5-.86.86-1.18.37-.32.81-.57,1.32-.73.51-.17,1.07-.26,1.69-.26.31,0,.62.02.91.06s.56.09.81.16h3.19c.13,0,.23.08.31.25.08.17.12.45.12.84ZM196.49,105.38c0-.34-.14-.6-.41-.78-.27-.18-.64-.28-1.12-.29l-2.02-.06c-.19.14-.35.28-.47.41-.12.13-.21.26-.28.38-.07.12-.12.24-.14.35s-.03.23-.03.35c0,.38.19.66.57.86s.91.29,1.61.29c.43,0,.79-.04,1.08-.13.29-.09.53-.2.71-.35.18-.14.31-.3.38-.48.07-.18.11-.36.11-.56ZM195.83,97.32c0-.54-.15-.97-.45-1.27s-.73-.45-1.27-.45c-.28,0-.52.05-.73.14-.21.09-.38.22-.52.38-.14.16-.24.35-.31.57-.07.21-.1.44-.1.67,0,.51.15.92.45,1.22.3.3.72.45,1.25.45.29,0,.53-.05.74-.14s.38-.21.52-.37c.14-.16.24-.34.32-.55.07-.21.11-.42.11-.65Z"/>
          <path class="cls-1" d="M207.68,104.71l-1.22,3.58c-.07.19-.25.32-.55.41-.3.08-.74.12-1.32.12-.3,0-.54-.01-.72-.04-.18-.03-.31-.07-.41-.13s-.14-.14-.15-.23.02-.2.07-.33l1.34-3.38c-.1-.05-.19-.12-.26-.21-.08-.1-.14-.19-.17-.3l-3.46-9.28c-.1-.26-.14-.47-.14-.6s.04-.25.13-.33c.09-.08.24-.13.46-.16s.5-.05.85-.05c.32,0,.58,0,.77.02.19,0,.33.04.44.08.1.05.18.12.24.21.05.09.1.23.16.4l2.37,6.75h.03l2.16-6.89c.05-.2.1-.33.17-.39.07-.06.19-.11.36-.14s.45-.05.87-.05c.32,0,.59.02.81.05s.37.09.47.17.15.19.15.33-.03.31-.09.49l-3.35,9.89Z"/>
          <path class="cls-1" d="M228.89,91.29c0,.22,0,.41-.03.56-.02.15-.05.28-.09.37-.04.1-.08.17-.14.21s-.12.07-.19.07h-3.65v11.8c0,.07-.02.14-.07.2s-.13.11-.24.15-.26.07-.46.09c-.19.02-.43.03-.72.03s-.52-.01-.72-.03c-.19-.02-.34-.05-.46-.09s-.19-.09-.24-.15-.07-.13-.07-.2v-11.8h-3.65c-.07,0-.14-.02-.19-.07-.05-.05-.1-.12-.13-.21-.04-.09-.07-.22-.09-.37-.02-.16-.03-.34-.03-.56s0-.42.03-.58.05-.29.09-.38c.04-.1.08-.16.13-.2.05-.04.12-.06.19-.06h10.28c.07,0,.13.02.19.06.06.04.1.11.14.2.04.09.07.22.09.38.02.16.03.35.03.58Z"/>
          <path class="cls-1" d="M239.13,99.18c0,.86-.11,1.64-.34,2.35-.22.71-.57,1.32-1.03,1.83-.46.51-1.03.91-1.72,1.19-.69.28-1.5.42-2.42.42s-1.67-.12-2.33-.37c-.66-.25-1.21-.61-1.64-1.09-.43-.48-.76-1.06-.97-1.75s-.31-1.49-.31-2.38.11-1.64.34-2.36c.23-.71.57-1.32,1.03-1.83.46-.51,1.03-.9,1.72-1.18.69-.28,1.49-.42,2.42-.42s1.68.12,2.34.37c.66.24,1.21.6,1.64,1.08.43.48.75,1.06.96,1.75s.32,1.49.32,2.39ZM236.21,99.29c0-.5-.04-.96-.12-1.37-.08-.42-.21-.78-.4-1.09s-.44-.55-.75-.72c-.31-.17-.71-.26-1.18-.26-.42,0-.79.08-1.1.23-.31.16-.57.38-.78.68-.2.3-.35.66-.45,1.08-.1.42-.15.89-.15,1.43,0,.5.04.95.12,1.38.08.42.22.78.4,1.09s.43.55.75.72c.32.17.71.25,1.17.25.43,0,.8-.08,1.12-.23.32-.16.57-.38.78-.67s.35-.65.45-1.07c.1-.42.15-.9.15-1.43Z"/>
          <path class="cls-1" d="M257.47,91.29c0,.22,0,.41-.03.56-.02.15-.05.28-.09.37-.04.1-.08.17-.14.21s-.12.07-.19.07h-3.65v11.8c0,.07-.02.14-.07.2s-.13.11-.24.15-.26.07-.46.09c-.19.02-.43.03-.72.03s-.52-.01-.72-.03c-.19-.02-.34-.05-.46-.09s-.19-.09-.24-.15-.07-.13-.07-.2v-11.8h-3.65c-.07,0-.14-.02-.19-.07-.05-.05-.1-.12-.13-.21-.04-.09-.07-.22-.09-.37-.02-.16-.03-.34-.03-.56s0-.42.03-.58.05-.29.09-.38c.04-.1.08-.16.13-.2.05-.04.12-.06.19-.06h10.28c.07,0,.13.02.19.06.06.04.1.11.14.2.04.09.07.22.09.38.02.16.03.35.03.58Z"/>
          <path class="cls-1" d="M269.14,104.33c0,.07-.02.14-.07.2-.05.05-.12.1-.23.14-.1.04-.25.07-.43.09-.19.02-.41.03-.68.03s-.51,0-.69-.03c-.18-.02-.33-.05-.43-.09-.1-.04-.18-.09-.22-.14-.05-.06-.07-.12-.07-.2v-5.76c0-.49-.04-.88-.11-1.15-.07-.28-.17-.52-.31-.72-.13-.2-.31-.36-.52-.47-.21-.11-.46-.16-.75-.16-.36,0-.73.13-1.09.4-.37.26-.75.65-1.15,1.15v6.71c0,.07-.02.14-.07.2-.05.05-.12.1-.23.14-.11.04-.25.07-.43.09-.18.02-.41.03-.69.03s-.51,0-.69-.03c-.18-.02-.32-.05-.43-.09-.11-.04-.19-.09-.23-.14-.05-.06-.07-.12-.07-.2v-14.88c0-.07.02-.14.07-.2s.12-.11.23-.15c.11-.04.26-.07.43-.1.18-.02.41-.03.69-.03s.51.01.69.03.32.05.43.1c.11.04.19.09.23.15s.07.13.07.2v5.58c.49-.48.98-.84,1.49-1.08.51-.24,1.04-.36,1.58-.36.68,0,1.26.11,1.73.34.47.23.85.54,1.14.93.29.39.5.85.62,1.37.13.52.19,1.16.19,1.91v6.19Z"/>
          <path class="cls-1" d="M281.71,98.99c0,.35-.08.6-.23.77s-.37.25-.64.25h-6.12c0,.43.05.82.15,1.17.1.35.26.65.48.89.22.25.51.43.86.56.35.13.77.19,1.26.19s.93-.04,1.31-.11c.38-.07.7-.15.98-.24.27-.09.5-.17.68-.24.18-.07.33-.11.44-.11.07,0,.12.01.17.04.05.02.08.07.11.14s.05.16.06.29c.01.12.02.28.02.47,0,.17,0,.31-.01.42,0,.12-.02.22-.03.3s-.04.15-.07.21c-.03.05-.07.11-.12.16s-.18.12-.4.21-.5.18-.83.26c-.34.09-.73.16-1.16.23-.44.07-.9.1-1.4.1-.89,0-1.68-.11-2.35-.34s-1.24-.57-1.69-1.03-.79-1.04-1.01-1.74-.33-1.52-.33-2.47.12-1.71.35-2.43c.23-.72.57-1.33,1.01-1.83.44-.5.98-.88,1.62-1.15.63-.26,1.35-.4,2.15-.4.84,0,1.56.12,2.16.37s1.09.59,1.47,1.04c.38.44.67.96.85,1.57.18.6.27,1.26.27,1.97v.45ZM278.97,98.17c.02-.8-.14-1.43-.48-1.88-.34-.46-.87-.69-1.58-.69-.36,0-.67.07-.94.2s-.49.32-.67.55c-.18.23-.31.5-.41.81-.1.31-.15.64-.17,1h4.24Z"/>
          <path class="cls-1" d="M302.47,103.67c0,.17-.03.33-.09.46-.06.14-.14.25-.24.34s-.22.16-.36.2c-.14.04-.28.06-.42.06h-1.26c-.26,0-.49-.03-.68-.08s-.37-.15-.53-.29c-.16-.14-.32-.33-.47-.57-.15-.24-.32-.55-.51-.92l-3.63-6.84c-.21-.41-.43-.85-.64-1.32-.22-.47-.41-.93-.59-1.37h-.02c.03.54.05,1.08.07,1.62.01.54.02,1.1.02,1.67v7.66c0,.07-.02.14-.06.2s-.11.11-.21.15c-.1.04-.24.07-.41.1-.17.02-.4.03-.67.03s-.48-.01-.65-.03-.31-.05-.41-.1c-.1-.04-.17-.09-.2-.15s-.06-.13-.06-.2v-13.16c0-.36.1-.62.31-.8.21-.18.46-.27.76-.27h1.59c.29,0,.52.02.72.07.2.05.37.13.52.24s.3.27.43.47c.13.2.27.45.42.74l2.84,5.35c.17.32.33.64.49.95.16.31.32.63.47.94.15.31.3.62.44.92.14.3.28.6.42.91h.01c-.02-.53-.04-1.08-.05-1.65s-.02-1.12-.02-1.64v-6.87c0-.07.02-.14.07-.2s.12-.11.22-.16c.11-.05.24-.08.42-.1.17-.02.39-.03.66-.03s.47,0,.64.03c.17.02.31.05.4.1.1.05.16.1.2.16.04.06.06.13.06.2v13.16Z"/>
          <path class="cls-1" d="M315.28,98.99c0,.35-.08.6-.23.77s-.37.25-.64.25h-6.12c0,.43.05.82.15,1.17.1.35.26.65.48.89.22.25.51.43.86.56.35.13.77.19,1.26.19s.93-.04,1.31-.11c.38-.07.7-.15.98-.24.27-.09.5-.17.68-.24.18-.07.33-.11.44-.11.07,0,.12.01.17.04.05.02.08.07.11.14s.05.16.06.29c.01.12.02.28.02.47,0,.17,0,.31-.01.42,0,.12-.02.22-.03.3s-.04.15-.07.21c-.03.05-.07.11-.12.16s-.18.12-.4.21-.5.18-.83.26c-.34.09-.73.16-1.16.23-.44.07-.9.1-1.4.1-.89,0-1.68-.11-2.35-.34s-1.24-.57-1.69-1.03-.79-1.04-1.01-1.74c-.22-.7-.33-1.52-.33-2.47s.12-1.71.35-2.43c.23-.72.57-1.33,1.01-1.83.44-.5.98-.88,1.62-1.15.63-.26,1.35-.4,2.15-.4.84,0,1.56.12,2.16.37s1.09.59,1.47,1.04c.38.44.67.96.85,1.57.18.6.27,1.26.27,1.97v.45ZM312.53,98.17c.02-.8-.14-1.43-.48-1.88-.34-.46-.87-.69-1.58-.69-.36,0-.67.07-.94.2s-.49.32-.67.55c-.18.23-.31.5-.41.81-.1.31-.15.64-.17,1h4.24Z"/>
          <path class="cls-1" d="M326.49,104.12c.06.13.09.23.09.32,0,.08-.06.15-.17.2-.1.05-.27.09-.48.11-.22.02-.51.03-.87.03-.34,0-.61,0-.82-.02-.21,0-.37-.03-.48-.07-.12-.03-.2-.07-.26-.12-.06-.05-.1-.11-.13-.19l-1.86-3.59-1.86,3.59c-.03.07-.07.14-.12.19-.05.05-.13.09-.24.12-.11.04-.26.06-.45.07-.2.01-.45.02-.77.02-.33,0-.59,0-.79-.03-.19-.02-.34-.06-.43-.11s-.14-.12-.14-.2c0-.08.03-.19.1-.32l2.78-4.97-2.57-4.66c-.07-.14-.1-.25-.11-.35,0-.09.04-.17.14-.22s.25-.09.47-.11c.21-.02.51-.03.87-.03.33,0,.6,0,.8.02.2,0,.35.03.47.05s.2.06.25.11c.05.05.1.11.14.19l1.79,3.37,1.78-3.37c.02-.06.06-.11.1-.16s.12-.08.21-.11.23-.05.4-.07c.17-.02.4-.02.69-.02.33,0,.6,0,.79.02s.34.05.43.1.13.13.12.22c0,.1-.05.22-.13.37l-2.5,4.58,2.76,5.05Z"/>
          <path class="cls-1" d="M334.82,103.33c0,.33-.02.59-.06.76-.04.18-.1.3-.16.37-.07.07-.17.14-.3.19-.13.05-.29.1-.46.14-.18.04-.37.07-.57.1-.21.02-.41.03-.62.03-.56,0-1.05-.07-1.47-.21-.41-.14-.75-.36-1.03-.66-.27-.3-.47-.67-.6-1.12-.13-.45-.19-.99-.19-1.61v-5.17h-1.21c-.14,0-.25-.09-.33-.27-.07-.18-.11-.47-.11-.89,0-.22,0-.4.03-.55s.05-.27.08-.36c.04-.09.09-.15.14-.19s.12-.06.2-.06h1.19v-2.25c0-.07.02-.14.06-.2s.12-.11.23-.15c.11-.04.26-.07.44-.09.18-.02.41-.03.68-.03s.51,0,.69.03c.19.02.33.05.43.09.11.04.18.09.23.15s.07.13.07.2v2.25h2.19c.07,0,.14.02.2.06s.1.1.14.19c.04.09.07.2.09.36.02.15.03.33.03.55,0,.41-.04.71-.11.89-.07.18-.18.27-.33.27h-2.2v4.74c0,.55.09.96.26,1.24.17.28.48.41.93.41.15,0,.29-.01.41-.04.12-.03.23-.06.32-.09.09-.04.17-.07.24-.09.07-.03.12-.04.18-.04.05,0,.09.01.13.04.04.02.07.08.1.16.02.08.04.19.06.32.02.14.03.31.03.52Z"/>
          <path class="cls-1" d="M351.28,103.47c0,.23,0,.42-.03.57-.02.16-.05.29-.09.38-.04.1-.08.18-.14.22s-.12.07-.2.07h-6.68c-.25,0-.46-.07-.63-.22-.17-.14-.25-.38-.25-.72v-13.29c0-.07.02-.14.07-.2.05-.06.13-.11.24-.15.11-.04.26-.07.45-.09.19-.02.43-.03.72-.03s.53.01.72.03.34.05.45.09c.11.04.19.09.24.15.05.06.07.13.07.2v11.78h4.59c.07,0,.14.02.2.06.06.04.1.11.14.2.04.1.07.22.09.38.02.15.03.34.03.57Z"/>
          <path class="cls-1" d="M362.65,98.99c0,.35-.08.6-.23.77s-.37.25-.64.25h-6.12c0,.43.05.82.15,1.17.1.35.26.65.48.89.22.25.51.43.86.56.35.13.77.19,1.26.19s.93-.04,1.31-.11c.38-.07.7-.15.98-.24.27-.09.5-.17.68-.24.18-.07.33-.11.44-.11.07,0,.12.01.17.04.05.02.08.07.11.14s.05.16.06.29c.01.12.02.28.02.47,0,.17,0,.31-.01.42,0,.12-.02.22-.03.3s-.04.15-.07.21c-.03.05-.07.11-.12.16s-.18.12-.4.21-.5.18-.83.26c-.34.09-.73.16-1.16.23-.44.07-.9.1-1.4.1-.89,0-1.68-.11-2.35-.34s-1.24-.57-1.69-1.03-.79-1.04-1.01-1.74c-.22-.7-.33-1.52-.33-2.47s.12-1.71.35-2.43c.23-.72.57-1.33,1.01-1.83.44-.5.98-.88,1.62-1.15.63-.26,1.35-.4,2.15-.4.84,0,1.56.12,2.16.37s1.09.59,1.47,1.04c.38.44.67.96.85,1.57.18.6.27,1.26.27,1.97v.45ZM359.9,98.17c.02-.8-.14-1.43-.48-1.88-.34-.46-.87-.69-1.58-.69-.36,0-.67.07-.94.2s-.49.32-.67.55c-.18.23-.31.5-.41.81-.1.31-.15.64-.17,1h4.24Z"/>
          <path class="cls-1" d="M374.63,94.22s0,.08,0,.14c0,.05-.01.11-.02.17-.01.07-.03.14-.05.22s-.04.18-.07.28l-3.02,9.13c-.04.13-.09.23-.15.31-.07.08-.17.14-.32.19s-.35.07-.6.09-.58.02-.99.02-.72,0-.97-.03c-.25-.02-.45-.05-.59-.1s-.25-.11-.31-.19c-.06-.08-.11-.18-.15-.3l-3.02-9.13c-.05-.15-.08-.29-.11-.41s-.04-.21-.05-.26,0-.1,0-.15c0-.07.02-.14.06-.2.04-.06.12-.1.22-.14.11-.04.25-.06.43-.08.18-.02.41-.02.69-.02.31,0,.56,0,.74.03.19.02.33.05.45.08.11.03.19.08.23.14.05.07.08.14.11.23l2.29,7.41.07.28.07-.28,2.25-7.41c.02-.09.06-.17.11-.23.05-.06.12-.11.23-.14.1-.04.24-.06.42-.08.18-.02.41-.03.69-.03s.5,0,.68.02.31.04.41.08.17.08.2.14c.04.05.06.12.06.2Z"/>
          <path class="cls-1" d="M385.88,98.99c0,.35-.08.6-.23.77s-.37.25-.64.25h-6.12c0,.43.05.82.15,1.17.1.35.26.65.48.89.22.25.51.43.86.56.35.13.77.19,1.26.19s.93-.04,1.31-.11c.38-.07.7-.15.98-.24.27-.09.5-.17.68-.24.18-.07.33-.11.44-.11.07,0,.12.01.17.04.05.02.08.07.11.14s.05.16.06.29c.01.12.02.28.02.47,0,.17,0,.31-.01.42,0,.12-.02.22-.03.3s-.04.15-.07.21c-.03.05-.07.11-.12.16s-.18.12-.4.21-.5.18-.83.26c-.34.09-.73.16-1.16.23-.44.07-.9.1-1.4.1-.89,0-1.68-.11-2.35-.34s-1.24-.57-1.69-1.03-.79-1.04-1.01-1.74-.33-1.52-.33-2.47.12-1.71.35-2.43c.23-.72.57-1.33,1.01-1.83.44-.5.98-.88,1.62-1.15.63-.26,1.35-.4,2.15-.4.84,0,1.56.12,2.16.37s1.09.59,1.47,1.04c.38.44.67.96.85,1.57.18.6.27,1.26.27,1.97v.45ZM383.13,98.17c.02-.8-.14-1.43-.48-1.88-.34-.46-.87-.69-1.58-.69-.36,0-.67.07-.94.2s-.49.32-.67.55c-.18.23-.31.5-.41.81-.1.31-.15.64-.17,1h4.24Z"/>
          <path class="cls-1" d="M391.56,104.33c0,.07-.02.14-.07.2-.05.05-.12.1-.23.14-.11.04-.25.07-.43.09-.18.02-.41.03-.69.03s-.51,0-.69-.03c-.18-.02-.32-.05-.43-.09-.11-.04-.19-.09-.23-.14-.05-.06-.07-.12-.07-.2v-14.88c0-.07.02-.14.07-.2s.12-.11.23-.15c.11-.04.26-.07.43-.1.18-.02.41-.03.69-.03s.51.01.69.03.32.05.43.1c.11.04.19.09.23.15s.07.13.07.2v14.88Z"/>
        </g>
      </g>
      <g>
        <path class="cls-1" d="M395.43,0C393.26,0,391.13.65,389.32,1.85c-1.81,1.21-3.22,2.93-4.05,4.94-.83,2.01-1.05,4.22-.63,6.36.42,2.13,1.47,4.09,3.01,5.63,1.54,1.54,3.5,2.59,5.63,3.01,2.13.42,4.35.21,6.36-.63,2.01-.83,3.73-2.24,4.94-4.05,1.21-1.81,1.85-3.94,1.85-6.11,0-2.92-1.16-5.72-3.22-7.78-2.06-2.06-4.86-3.22-7.78-3.22h0ZM395.43,19.8c-1.74,0-3.44-.52-4.89-1.48-1.45-.97-2.58-2.34-3.24-3.95-.67-1.61-.84-3.38-.5-5.08.34-1.71,1.18-3.28,2.41-4.51,1.23-1.23,2.8-2.07,4.51-2.41,1.71-.34,3.48-.17,5.08.5,1.61.67,2.98,1.79,3.95,3.24.97,1.45,1.48,3.15,1.48,4.89,0,2.33-.93,4.57-2.58,6.22-1.65,1.65-3.89,2.58-6.22,2.58h0Z"/>
        <path class="cls-1" d="M399.83,8.8c0-.88-.35-1.71-.97-2.33s-1.46-.97-2.33-.97h-5.5v11h2.2v-4.4h1.61l2.94,4.4h2.64l-3.02-4.53c.7-.19,1.31-.6,1.76-1.17.44-.57.68-1.27.69-2ZM396.53,9.9h-3.3v-2.2h3.3c.29,0,.57.12.78.32.21.21.32.49.32.78s-.12.57-.32.78-.49.32-.78.32Z"/>
      </g>
    </g>
  </g>
</svg>