<svg xmlns="http://www.w3.org/2000/svg" viewBox="0 0 200 200" fill="none">
  <circle cx="100" cy="100" r="100" fill="#34002b"/>
  <clipPath id="c">
    <circle cx="100" cy="100" r="88"/>
  </clipPath>
  <g clip-path="url(#c)">
    <path d="M 10 30 C 40 20, 80 50, 70 100 C 60 150, 20 160, 10 190" stroke="white" stroke-width="22" fill="none" stroke-linecap="round"/>
    <path d="M 70 5 C 120 0, 160 30, 155 80 C 150 120, 110 140, 90 155" stroke="white" stroke-width="22" fill="none" stroke-linecap="round"/>
    <path d="M 120 80 C 150 90, 185 130, 175 175" stroke="white" stroke-width="22" fill="none" stroke-linecap="round"/>
    <path d="M 40 140 C 70 170, 120 185, 160 195" stroke="white" stroke-width="18" fill="none" stroke-linecap="round"/>
  </g>
  <circle cx="100" cy="100" r="88" stroke="white" stroke-width="6" fill="none"/>
  <ellipse cx="100" cy="105" rx="130" ry="24" stroke="white" stroke-width="5" fill="none" transform="rotate(-20 100 105)"/>
</svg>
